{"glyphs":{"0":{"ha":824,"x_min":18,"x_max":806,"o":"m 411 972 l 804 499 l 583 218 l 411 0 l 239 218 l 18 499 l 411 972 m 411 243 l 622 506 l 411 739 l 204 506 l 411 243 m 497 490 l 413 407 l 329 490 l 413 575 l 497 490 z "},"1":{"ha":429,"x_min":29,"x_max":360,"o":"m 358 972 l 358 833 l 358 0 l 219 0 l 219 833 l 31 833 l 31 972 l 219 972 l 358 972 z "},"2":{"ha":714,"x_min":46,"x_max":667,"o":"m 242 140 l 665 140 l 665 0 l 46 0 l 46 140 l 440 556 l 85 867 l 176 972 l 642 565 l 242 140 z "},"3":{"ha":704,"x_min":54,"x_max":661,"o":"m 661 667 l 340 486 l 661 303 l 122 0 l 54 122 l 378 304 l 54 488 l 378 668 l 54 851 l 122 972 l 661 667 z "},"4":{"ha":717,"x_min":33,"x_max":647,"o":"m 507 972 l 646 972 l 646 0 l 507 0 l 507 417 l 35 415 l 253 971 l 382 919 l 240 556 l 507 556 l 507 972 z "},"5":{"ha":735,"x_min":47,"x_max":688,"o":"m 188 736 l 688 486 l 404 -10 l 283 60 l 493 426 l 47 650 l 47 972 l 667 972 l 667 833 l 188 833 l 188 736 z "},"6":{"ha":790,"x_min":26,"x_max":740,"o":"m 240 571 l 740 535 l 735 378 l 424 29 l 28 518 l 365 988 l 689 719 l 590 610 l 388 776 l 240 571 m 428 246 l 571 403 l 285 424 l 283 425 l 428 246 z "},"7":{"ha":744,"x_min":49,"x_max":675,"o":"m 49 972 l 675 972 l 240 192 l 240 0 l 101 0 l 101 228 l 439 833 l 49 833 l 49 972 z "},"8":{"ha":871,"x_min":44,"x_max":826,"o":"m 553 485 l 606 444 l 825 279 l 813 269 l 435 0 l 426 6 l 44 279 l 265 444 l 317 485 l 44 679 l 265 844 l 435 972 l 606 844 l 825 679 l 813 669 l 553 485 m 276 676 l 435 572 l 435 574 l 435 572 l 590 676 l 435 793 l 276 676 m 435 172 l 590 276 l 435 394 l 276 276 l 435 172 z "},"9":{"ha":790,"x_min":50,"x_max":763,"o":"m 367 988 l 763 499 l 425 29 l 101 296 l 200 407 l 403 239 l 550 444 l 50 481 l 56 639 l 367 988 m 506 592 l 363 771 l 219 613 l 506 592 z "},"\u0000":{"ha":0,"x_min":0,"x_max":0,"o":""},"\n":{"ha":0,"x_min":0,"x_max":0,"o":""},"\r":{"ha":0,"x_min":0,"x_max":0,"o":""}," ":{"ha":410,"x_min":0,"x_max":0,"o":""},"!":{"ha":331,"x_min":57,"x_max":272,"o":"m 235 267 l 94 267 l 94 972 l 235 972 l 235 267 m 271 107 l 165 0 l 58 107 l 165 213 l 271 107 z "},"\"":{"ha":399,"x_min":43,"x_max":358,"o":"m 221 842 l 222 842 l 92 711 l 44 758 l 135 842 l 44 925 l 92 972 l 222 843 l 221 842 m 358 843 l 357 842 l 358 842 l 228 711 l 181 758 l 271 842 l 181 925 l 228 972 l 358 843 z "},"#":{"ha":938,"x_min":56,"x_max":881,"o":"m 881 722 l 881 583 l 708 583 l 708 399 l 881 399 l 881 260 l 708 260 l 708 0 l 568 0 l 568 260 l 376 260 l 376 0 l 236 0 l 236 260 l 57 260 l 57 399 l 236 399 l 236 583 l 57 583 l 57 722 l 236 722 l 236 972 l 376 972 l 376 722 l 568 722 l 568 972 l 708 972 l 708 722 l 881 722 m 568 399 l 568 583 l 376 583 l 376 399 l 568 399 z "},"$":{"ha":682,"x_min":44,"x_max":642,"o":"m 640 869 l 314 572 l 626 354 l 393 181 l 393 -111 l 253 -111 l 253 78 l 149 0 l 44 111 l 367 340 l 44 565 l 253 742 l 253 1082 l 393 1082 l 393 860 l 526 972 l 640 869 z "},"%":{"ha":978,"x_min":36,"x_max":950,"o":"m 800 901 l 260 0 l 140 72 l 681 972 l 800 901 m 746 504 l 950 260 l 838 118 l 746 0 l 654 118 l 542 260 l 746 504 m 746 158 l 828 261 l 746 353 l 665 261 l 746 158 m 240 468 l 147 586 l 36 728 l 240 972 l 443 728 l 332 586 l 240 468 m 240 821 l 160 731 l 240 628 l 322 731 l 240 821 z "},"&":{"ha":703,"x_min":42,"x_max":649,"o":"m 325 668 l 649 488 l 325 304 l 649 122 l 579 0 l 415 93 l 415 -111 l 275 -111 l 275 164 l 282 168 l 42 304 l 363 486 l 42 668 l 275 800 l 275 1082 l 415 1082 l 415 879 l 579 972 l 649 851 l 325 668 z "},"'":{"ha":263,"x_min":43,"x_max":222,"o":"m 222 843 l 221 842 l 222 842 l 92 711 l 44 758 l 135 842 l 44 925 l 92 972 l 222 843 z "},"(":{"ha":796,"x_min":69,"x_max":728,"o":"m 726 988 l 258 486 l 726 -15 l 625 -111 l 69 489 l 625 1082 l 726 988 z "},")":{"ha":796,"x_min":69,"x_max":728,"o":"m 172 1082 l 726 489 l 172 -111 l 69 -15 l 539 486 l 69 988 l 172 1082 z "},"*":{"ha":440,"x_min":46,"x_max":397,"o":"m 396 842 l 290 796 l 357 722 l 274 671 l 222 742 l 172 664 l 92 714 l 144 783 l 46 792 l 57 881 l 172 864 l 164 978 l 260 978 l 260 874 l 353 910 l 396 842 z "},"+":{"ha":568,"x_min":49,"x_max":519,"o":"m 354 557 l 518 557 l 518 417 l 354 417 l 354 251 l 214 251 l 214 417 l 49 417 l 49 557 l 214 557 l 214 722 l 354 722 l 354 557 z "},",":{"ha":263,"x_min":43,"x_max":221,"o":"m 221 83 l 219 82 l 221 82 l 90 -49 l 43 -1 l 133 82 l 43 165 l 90 213 l 221 83 z "},"-":{"ha":554,"x_min":42,"x_max":513,"o":"m 511 417 l 42 417 l 42 557 l 511 557 l 511 417 z "},".":{"ha":294,"x_min":40,"x_max":254,"o":"m 253 107 l 147 0 l 40 107 l 147 213 l 253 107 z "},"/":{"ha":799,"x_min":69,"x_max":731,"o":"m 729 900 l 189 -1 l 69 71 l 610 972 l 729 900 z "},":":{"ha":311,"x_min":49,"x_max":263,"o":"m 261 107 l 156 0 l 49 107 l 156 213 l 261 107 m 261 425 l 156 319 l 49 425 l 156 532 l 261 425 z "},";":{"ha":308,"x_min":46,"x_max":260,"o":"m 258 425 l 153 319 l 46 425 l 153 532 l 258 425 m 129 213 l 258 83 l 258 82 l 129 -49 l 82 -1 l 171 82 l 82 165 l 129 213 z "},"<":{"ha":524,"x_min":36,"x_max":475,"o":"m 475 575 l 289 453 l 475 329 l 397 213 l 36 451 l 397 692 l 475 575 z "},"=":{"ha":574,"x_min":51,"x_max":522,"o":"m 521 510 l 51 510 l 51 650 l 521 650 l 521 510 m 521 322 l 51 322 l 51 463 l 521 463 l 521 322 z "},">":{"ha":524,"x_min":49,"x_max":488,"o":"m 125 692 l 488 451 l 125 213 l 49 329 l 235 453 l 49 575 l 125 692 z "},"?":{"ha":696,"x_min":68,"x_max":626,"o":"m 431 107 l 324 0 l 217 107 l 324 213 l 431 107 m 161 972 l 626 567 l 431 358 l 431 258 l 244 258 l 244 358 l 425 557 l 69 868 l 161 972 z "},"@":{"ha":910,"x_min":63,"x_max":850,"o":"m 849 290 l 279 290 l 279 290 l 279 633 l 521 633 l 521 674 l 633 674 l 633 401 l 715 401 l 715 653 l 456 808 l 196 653 l 196 290 l 456 165 l 675 250 l 731 107 l 456 0 l 63 207 l 63 739 l 456 972 l 849 739 l 849 401 l 849 290 m 390 521 l 390 401 l 521 401 l 521 521 l 390 521 z "},"A":{"ha":731,"x_min":-1,"x_max":731,"o":"m 476 707 l 729 51 l 599 0 l 492 279 l 226 229 l 139 0 l -1 35 l 299 783 l 242 932 l 374 972 l 476 707 m 285 383 l 440 413 l 368 600 l 285 383 z "},"À":{"ha":731,"x_min":-1,"x_max":731,"o":"m 476 707 l 729 51 l 599 0 l 492 279 l 226 229 l 139 0 l -1 35 l 299 783 l 242 932 l 374 972 l 476 707 m 285 383 l 440 413 l 368 600 l 285 383 z "},"Á":{"ha":731,"x_min":-1,"x_max":731,"o":"m 476 707 l 729 51 l 599 0 l 492 279 l 226 229 l 139 0 l -1 35 l 299 783 l 242 932 l 374 972 l 476 707 m 285 383 l 440 413 l 368 600 l 285 383 z "},"Â":{"ha":731,"x_min":-1,"x_max":731,"o":"m 476 707 l 729 51 l 599 0 l 492 279 l 226 229 l 139 0 l -1 35 l 299 783 l 242 932 l 374 972 l 476 707 m 285 383 l 440 413 l 368 600 l 285 383 z "},"Ã":{"ha":731,"x_min":-1,"x_max":731,"o":"m 476 707 l 729 51 l 599 0 l 492 279 l 226 229 l 139 0 l -1 35 l 299 783 l 242 932 l 374 972 l 476 707 m 285 383 l 440 413 l 368 600 l 285 383 z "},"Ä":{"ha":731,"x_min":-1,"x_max":731,"o":"m 476 707 l 729 51 l 599 0 l 492 279 l 226 229 l 139 0 l -1 35 l 299 783 l 242 932 l 374 972 l 476 707 m 285 383 l 440 413 l 368 600 l 285 383 z "},"Å":{"ha":731,"x_min":-1,"x_max":731,"o":"m 476 707 l 729 51 l 599 0 l 492 279 l 226 229 l 139 0 l -1 35 l 299 783 l 242 932 l 374 972 l 476 707 m 285 383 l 440 413 l 368 600 l 285 383 z "},"B":{"ha":693,"x_min":14,"x_max":685,"o":"m 117 968 l 679 604 l 424 489 l 683 321 l 117 0 l 117 786 l 14 850 l 117 968 m 256 707 l 256 568 l 385 624 l 256 707 m 256 242 l 403 325 l 256 419 l 256 242 z "},"C":{"ha":717,"x_min":-1,"x_max":700,"o":"m 599 369 l 699 271 l 676 251 l 614 197 l 396 11 l 0 486 l 363 968 l 651 742 l 694 708 l 610 600 l 389 771 l 342 706 l 185 494 l 181 488 l 374 256 l 411 208 l 599 369 z "},"Ç":{"ha":717,"x_min":-1,"x_max":700,"o":"m 599 369 l 699 271 l 676 251 l 614 197 l 396 11 l 0 486 l 363 968 l 651 742 l 694 708 l 610 600 l 389 771 l 342 706 l 185 494 l 181 488 l 374 256 l 411 208 l 599 369 z "},"D":{"ha":681,"x_min":11,"x_max":686,"o":"m 685 492 l 117 1 l 117 786 l 13 850 l 117 969 l 685 492 m 257 671 l 257 308 l 469 492 l 257 671 z "},"E":{"ha":621,"x_min":13,"x_max":613,"o":"m 531 972 l 611 863 l 238 635 l 357 485 l 226 322 l 611 114 l 531 -1 l 13 290 l 40 324 l 176 486 l 117 558 l 115 558 l 13 681 l 531 972 z "},"È":{"ha":621,"x_min":13,"x_max":613,"o":"m 531 972 l 611 863 l 238 635 l 357 485 l 226 322 l 611 114 l 531 -1 l 13 290 l 40 324 l 176 486 l 117 558 l 115 558 l 13 681 l 531 972 z "},"É":{"ha":621,"x_min":13,"x_max":613,"o":"m 531 972 l 611 863 l 238 635 l 357 485 l 226 322 l 611 114 l 531 -1 l 13 290 l 40 324 l 176 486 l 117 558 l 115 558 l 13 681 l 531 972 z "},"Ê":{"ha":621,"x_min":13,"x_max":613,"o":"m 531 972 l 611 863 l 238 635 l 357 485 l 226 322 l 611 114 l 531 -1 l 13 290 l 40 324 l 176 486 l 117 558 l 115 558 l 13 681 l 531 972 z "},"Ë":{"ha":621,"x_min":13,"x_max":613,"o":"m 531 972 l 611 863 l 238 635 l 357 485 l 226 322 l 611 114 l 531 -1 l 13 290 l 40 324 l 176 486 l 117 558 l 115 558 l 13 681 l 531 972 z "},"F":{"ha":608,"x_min":17,"x_max":606,"o":"m 606 935 l 596 796 l 268 815 l 268 786 l 268 617 l 460 642 l 478 503 l 268 476 l 268 -1 l 125 -1 l 125 815 l 17 822 l 17 972 l 161 963 l 606 935 z "},"G":{"ha":750,"x_min":0,"x_max":713,"o":"m 694 -4 l 554 -4 l 561 194 l 396 10 l 0 499 l 338 968 l 661 700 l 563 590 l 360 757 l 178 503 l 386 243 l 400 226 l 543 385 l 351 397 l 360 543 l 713 517 l 694 -4 z "},"H":{"ha":767,"x_min":31,"x_max":733,"o":"m 668 0 l 529 0 l 529 586 l 240 586 l 240 0 l 101 0 l 101 586 l 31 586 l 31 726 l 101 726 l 101 972 l 240 972 l 240 726 l 529 726 l 529 972 l 668 972 l 668 726 l 732 726 l 732 586 l 668 586 l 668 0 z "},"I":{"ha":279,"x_min":69,"x_max":210,"o":"m 210 -4 l 69 -4 l 69 968 l 210 968 l 210 -4 z "},"Ì":{"ha":279,"x_min":69,"x_max":210,"o":"m 210 -4 l 69 -4 l 69 968 l 210 968 l 210 -4 z "},"Í":{"ha":279,"x_min":69,"x_max":210,"o":"m 210 -4 l 69 -4 l 69 968 l 210 968 l 210 -4 z "},"Î":{"ha":279,"x_min":69,"x_max":210,"o":"m 210 -4 l 69 -4 l 69 968 l 210 968 l 210 -4 z "},"Ï":{"ha":279,"x_min":69,"x_max":210,"o":"m 210 -4 l 69 -4 l 69 968 l 210 968 l 210 -4 z "},"J":{"ha":692,"x_min":0,"x_max":679,"o":"m 557 833 l 557 0 l 0 193 l 46 325 l 418 197 l 418 833 l 192 833 l 192 972 l 557 972 l 678 972 l 678 833 l 557 833 z "},"K":{"ha":675,"x_min":68,"x_max":665,"o":"m 563 960 l 665 863 l 232 526 l 664 122 l 563 26 l 210 339 l 210 -4 l 69 -4 l 69 968 l 210 968 l 210 700 l 563 960 z "},"L":{"ha":667,"x_min":7,"x_max":667,"o":"m 154 968 l 294 968 l 294 151 l 656 179 l 665 39 l 154 0 l 7 0 l 7 140 l 154 140 l 154 968 z "},"M":{"ha":1036,"x_min":14,"x_max":1022,"o":"m 254 656 l 254 7 l 114 7 l 114 785 l 14 854 l 114 974 l 514 696 l 921 974 l 1022 854 l 921 785 l 921 7 l 774 7 l 774 644 l 774 703 l 588 575 l 588 4 l 447 4 l 447 572 l 254 707 l 254 657 q 254 656 254 657 z "},"N":{"ha":788,"x_min":11,"x_max":718,"o":"m 718 4 l 578 4 l 578 468 l 578 481 l 269 697 l 257 704 l 257 4 l 117 4 l 117 790 l 13 854 l 117 974 l 578 651 l 578 974 l 718 974 l 718 4 z "},"Ñ":{"ha":788,"x_min":11,"x_max":718,"o":"m 718 4 l 578 4 l 578 468 l 578 481 l 269 697 l 257 704 l 257 4 l 117 4 l 117 790 l 13 854 l 117 974 l 578 651 l 578 974 l 718 974 l 718 4 z "},"O":{"ha":788,"x_min":0,"x_max":788,"o":"m 0 494 l 393 968 l 786 494 l 565 214 l 393 -4 l 221 214 l 0 494 m 535 578 l 433 700 l 393 750 l 179 494 l 201 467 l 375 243 l 392 222 l 606 493 l 590 511 l 535 578 z "},"Ò":{"ha":788,"x_min":0,"x_max":788,"o":"m 0 494 l 393 968 l 786 494 l 565 214 l 393 -4 l 221 214 l 0 494 m 535 578 l 433 700 l 393 750 l 179 494 l 201 467 l 375 243 l 392 222 l 606 493 l 590 511 l 535 578 z "},"Ó":{"ha":788,"x_min":0,"x_max":788,"o":"m 0 494 l 393 968 l 786 494 l 565 214 l 393 -4 l 221 214 l 0 494 m 535 578 l 433 700 l 393 750 l 179 494 l 201 467 l 375 243 l 392 222 l 606 493 l 590 511 l 535 578 z "},"Ô":{"ha":788,"x_min":0,"x_max":788,"o":"m 0 494 l 393 968 l 786 494 l 565 214 l 393 -4 l 221 214 l 0 494 m 535 578 l 433 700 l 393 750 l 179 494 l 201 467 l 375 243 l 392 222 l 606 493 l 590 511 l 535 578 z "},"Õ":{"ha":788,"x_min":0,"x_max":788,"o":"m 0 494 l 393 968 l 786 494 l 565 214 l 393 -4 l 221 214 l 0 494 m 535 578 l 433 700 l 393 750 l 179 494 l 201 467 l 375 243 l 392 222 l 606 493 l 590 511 l 535 578 z "},"Ö":{"ha":788,"x_min":0,"x_max":788,"o":"m 0 494 l 393 968 l 786 494 l 565 214 l 393 -4 l 221 214 l 0 494 m 535 578 l 433 700 l 393 750 l 179 494 l 201 467 l 375 243 l 392 222 l 606 493 l 590 511 l 535 578 z "},"Ø":{"ha":788,"x_min":0,"x_max":788,"o":"m 0 494 l 393 968 l 786 494 l 565 214 l 393 -4 l 221 214 l 0 494 m 535 578 l 433 700 l 393 750 l 179 494 l 201 467 l 375 243 l 392 222 l 606 493 l 590 511 l 535 578 z "},"P":{"ha":694,"x_min":11,"x_max":701,"o":"m 144 950 l 700 567 l 257 367 l 257 332 l 257 0 l 117 0 l 117 782 l 13 854 l 108 974 l 132 958 l 132 957 l 144 950 m 257 703 l 257 518 l 418 593 l 257 703 z "},"Q":{"ha":797,"x_min":-1,"x_max":786,"o":"m 392 976 l 785 503 l 615 288 l 742 131 l 657 8 l 526 175 l 392 4 l 219 222 l -1 503 l 392 976 m 525 401 l 604 501 l 589 519 l 533 586 l 432 710 l 392 758 l 178 503 l 200 475 l 374 253 l 390 231 l 436 289 l 349 401 l 438 510 l 525 401 z "},"R":{"ha":713,"x_min":10,"x_max":704,"o":"m 565 11 l 293 392 l 256 375 l 256 344 l 256 10 l 117 10 l 117 781 l 115 781 l 11 853 l 117 976 l 703 578 l 422 450 l 426 444 l 432 438 l 683 89 l 565 11 m 256 713 l 256 528 l 417 603 l 256 713 z "},"S":{"ha":629,"x_min":4,"x_max":628,"o":"m 503 972 l 628 890 l 276 590 l 567 383 l 126 0 l 4 82 l 342 372 l 50 579 l 503 972 z "},"T":{"ha":590,"x_min":-3,"x_max":593,"o":"m -3 833 l -3 972 l 593 972 l 593 833 l 365 833 l 365 0 l 225 0 l 225 833 l -3 833 z "},"U":{"ha":781,"x_min":69,"x_max":760,"o":"m 650 6 l 510 6 l 510 154 l 210 49 l 69 0 l 69 972 l 210 972 l 210 197 l 510 303 l 510 972 l 650 972 l 650 350 l 758 389 l 758 240 l 650 203 l 650 6 z "},"Ù":{"ha":781,"x_min":69,"x_max":760,"o":"m 650 6 l 510 6 l 510 154 l 210 49 l 69 0 l 69 972 l 210 972 l 210 197 l 510 303 l 510 972 l 650 972 l 650 350 l 758 389 l 758 240 l 650 203 l 650 6 z "},"Ú":{"ha":781,"x_min":69,"x_max":760,"o":"m 650 6 l 510 6 l 510 154 l 210 49 l 69 0 l 69 972 l 210 972 l 210 197 l 510 303 l 510 972 l 650 972 l 650 350 l 758 389 l 758 240 l 650 203 l 650 6 z "},"Û":{"ha":781,"x_min":69,"x_max":760,"o":"m 650 6 l 510 6 l 510 154 l 210 49 l 69 0 l 69 972 l 210 972 l 210 197 l 510 303 l 510 972 l 650 972 l 650 350 l 758 389 l 758 240 l 650 203 l 650 6 z "},"Ü":{"ha":781,"x_min":69,"x_max":760,"o":"m 650 6 l 510 6 l 510 154 l 210 49 l 69 0 l 69 972 l 210 972 l 210 197 l 510 303 l 510 972 l 650 972 l 650 350 l 758 389 l 758 240 l 650 203 l 650 6 z "},"V":{"ha":731,"x_min":0,"x_max":732,"o":"m 592 974 l 731 939 l 356 0 l 0 921 l 131 974 l 363 372 l 592 974 z "},"W":{"ha":1096,"x_min":0,"x_max":1097,"o":"m 957 974 l 1096 939 l 796 188 l 721 0 l 549 515 l 549 503 l 546 510 l 356 0 l 0 921 l 131 974 l 363 422 l 476 729 l 410 935 l 543 979 l 624 729 l 728 422 l 957 974 z "},"X":{"ha":650,"x_min":8,"x_max":642,"o":"m 506 972 l 640 924 l 399 444 l 588 54 l 475 0 l 325 297 l 174 0 l 61 54 l 250 444 l 8 924 l 144 972 l 325 599 l 506 972 z "},"Y":{"ha":660,"x_min":4,"x_max":664,"o":"m 663 924 l 407 419 l 463 306 l 347 244 l 333 272 l 196 0 l 83 54 l 260 419 l 4 924 l 140 972 l 333 572 l 528 972 l 663 924 z "},"Ý":{"ha":660,"x_min":4,"x_max":664,"o":"m 663 924 l 407 419 l 463 306 l 347 244 l 333 272 l 196 0 l 83 54 l 260 419 l 4 924 l 140 972 l 333 572 l 528 972 l 663 924 z "},"Ÿ":{"ha":660,"x_min":4,"x_max":664,"o":"m 663 924 l 407 419 l 463 306 l 347 244 l 333 272 l 196 0 l 83 54 l 260 419 l 4 924 l 140 972 l 333 572 l 528 972 l 663 924 z "},"Z":{"ha":583,"x_min":22,"x_max":560,"o":"m 560 833 l 528 833 l 214 149 l 560 149 l 560 8 l 22 8 l 22 149 l 61 149 l 375 833 l 22 833 l 22 972 l 560 972 l 560 833 z "},"[":{"ha":279,"x_min":69,"x_max":447,"o":"m 446 981 l 210 981 l 210 -8 l 446 -8 l 446 -149 l 69 -149 l 69 1119 l 210 1119 l 446 1119 l 446 981 z "},"\\":{"ha":765,"x_min":69,"x_max":696,"o":"m 183 972 l 696 72 l 582 0 l 69 901 l 183 972 z "},"]":{"ha":279,"x_min":-168,"x_max":210,"o":"m 69 1119 l 208 1119 l 208 -149 l -168 -149 l -168 -8 l 69 -8 l 69 981 l -168 981 l -168 1119 l 69 1119 z "},"^":{"ha":432,"x_min":42,"x_max":392,"o":"m 199 972 l 392 708 l 278 626 l 214 714 l 164 624 l 42 692 l 199 972 z "},"_":{"ha":735,"x_min":42,"x_max":693,"o":"m 693 0 l 42 0 l 42 140 l 693 140 l 693 0 z "},"`":{"ha":342,"x_min":40,"x_max":296,"o":"m 224 972 l 294 728 l 199 692 l 40 931 l 224 972 z "},"a":{"ha":731,"x_min":-3,"x_max":731,"o":"m 236 257 l 139 0 l -1 35 l 374 972 l 729 51 l 599 0 l 500 257 l 236 257 m 446 397 l 368 600 l 289 397 l 446 397 z "},"à":{"ha":731,"x_min":-3,"x_max":731,"o":"m 236 257 l 139 0 l -1 35 l 374 972 l 729 51 l 599 0 l 500 257 l 236 257 m 446 397 l 368 600 l 289 397 l 446 397 z "},"á":{"ha":731,"x_min":-3,"x_max":731,"o":"m 236 257 l 139 0 l -1 35 l 374 972 l 729 51 l 599 0 l 500 257 l 236 257 m 446 397 l 368 600 l 289 397 l 446 397 z "},"â":{"ha":731,"x_min":-3,"x_max":731,"o":"m 236 257 l 139 0 l -1 35 l 374 972 l 729 51 l 599 0 l 500 257 l 236 257 m 446 397 l 368 600 l 289 397 l 446 397 z "},"ã":{"ha":731,"x_min":-3,"x_max":731,"o":"m 236 257 l 139 0 l -1 35 l 374 972 l 729 51 l 599 0 l 500 257 l 236 257 m 446 397 l 368 600 l 289 397 l 446 397 z "},"ä":{"ha":731,"x_min":-3,"x_max":731,"o":"m 236 257 l 139 0 l -1 35 l 374 972 l 729 51 l 599 0 l 500 257 l 236 257 m 446 397 l 368 600 l 289 397 l 446 397 z "},"å":{"ha":731,"x_min":-3,"x_max":731,"o":"m 236 257 l 139 0 l -1 35 l 374 972 l 729 51 l 599 0 l 500 257 l 236 257 m 446 397 l 368 600 l 289 397 l 446 397 z "},"b":{"ha":644,"x_min":67,"x_max":636,"o":"m 376 489 l 635 321 l 68 0 l 68 968 l 632 606 l 376 489 m 208 707 l 208 569 l 336 624 l 208 707 m 208 242 l 356 325 l 208 419 l 208 242 z "},"c":{"ha":715,"x_min":-1,"x_max":700,"o":"m 614 192 l 396 4 l 0 479 l 363 963 l 651 735 l 694 701 l 610 593 l 389 765 l 342 700 l 185 489 l 181 482 l 374 250 l 411 203 l 599 364 l 699 265 l 676 246 l 614 192 z "},"ç":{"ha":715,"x_min":-1,"x_max":700,"o":"m 614 192 l 396 4 l 0 479 l 363 963 l 651 735 l 694 701 l 610 593 l 389 765 l 342 700 l 185 489 l 181 482 l 374 250 l 411 203 l 599 364 l 699 265 l 676 246 l 614 192 z "},"d":{"ha":633,"x_min":68,"x_max":639,"o":"m 422 310 l 292 196 l 69 0 l 69 968 l 639 490 l 626 481 l 422 310 m 210 669 l 210 307 l 422 490 l 376 529 l 375 529 l 210 669 z "},"e":{"ha":619,"x_min":13,"x_max":613,"o":"m 117 560 l 115 558 l 13 681 l 531 972 l 611 863 l 238 635 l 357 486 l 226 324 l 611 114 l 531 0 l 13 292 l 40 324 l 176 486 l 117 560 z "},"è":{"ha":619,"x_min":13,"x_max":613,"o":"m 117 560 l 115 558 l 13 681 l 531 972 l 611 863 l 238 635 l 357 486 l 226 324 l 611 114 l 531 0 l 13 292 l 40 324 l 176 486 l 117 560 z "},"é":{"ha":619,"x_min":13,"x_max":613,"o":"m 117 560 l 115 558 l 13 681 l 531 972 l 611 863 l 238 635 l 357 486 l 226 324 l 611 114 l 531 0 l 13 292 l 40 324 l 176 486 l 117 560 z "},"ê":{"ha":619,"x_min":13,"x_max":613,"o":"m 117 560 l 115 558 l 13 681 l 531 972 l 611 863 l 238 635 l 357 486 l 226 324 l 611 114 l 531 0 l 13 292 l 40 324 l 176 486 l 117 560 z "},"ë":{"ha":619,"x_min":13,"x_max":613,"o":"m 117 560 l 115 558 l 13 681 l 531 972 l 611 863 l 238 635 l 357 486 l 226 324 l 611 114 l 531 0 l 13 292 l 40 324 l 176 486 l 117 560 z "},"f":{"ha":553,"x_min":68,"x_max":550,"o":"m 213 483 l 213 6 l 68 6 l 68 972 l 549 942 l 539 804 l 211 822 l 213 793 l 213 624 l 403 649 l 422 510 l 213 483 z "},"g":{"ha":750,"x_min":0,"x_max":713,"o":"m 396 14 l 0 503 l 338 972 l 661 706 l 563 594 l 360 763 l 178 508 l 386 249 l 400 231 l 543 389 l 351 401 l 360 549 l 713 521 l 694 0 l 554 0 l 561 200 l 396 14 z "},"h":{"ha":706,"x_min":69,"x_max":638,"o":"m 210 586 l 210 0 l 69 0 l 69 972 l 210 972 l 210 726 l 497 726 l 497 972 l 636 972 l 636 0 l 497 0 l 497 586 l 210 586 z "},"i":{"ha":279,"x_min":69,"x_max":210,"o":"m 210 0 l 69 0 l 69 972 l 210 972 l 210 0 z "},"ì":{"ha":279,"x_min":69,"x_max":210,"o":"m 210 0 l 69 0 l 69 972 l 210 972 l 210 0 z "},"í":{"ha":279,"x_min":69,"x_max":210,"o":"m 210 0 l 69 0 l 69 972 l 210 972 l 210 0 z "},"î":{"ha":279,"x_min":69,"x_max":210,"o":"m 210 0 l 69 0 l 69 972 l 210 972 l 210 0 z "},"ï":{"ha":279,"x_min":69,"x_max":210,"o":"m 210 0 l 69 0 l 69 972 l 210 972 l 210 0 z "},"j":{"ha":635,"x_min":8,"x_max":565,"o":"m 565 972 l 565 0 l 8 193 l 54 325 l 426 197 l 426 833 l 106 833 l 106 972 l 565 972 z "},"k":{"ha":675,"x_min":69,"x_max":665,"o":"m 210 343 l 210 0 l 69 0 l 69 972 l 210 972 l 210 704 l 563 964 l 665 868 l 232 531 l 664 128 l 563 31 l 210 343 z "},"l":{"ha":582,"x_min":69,"x_max":582,"o":"m 569 183 l 581 44 l 69 4 l 69 972 l 210 972 l 210 156 l 569 183 z "},"m":{"ha":946,"x_min":69,"x_max":876,"o":"m 210 651 l 210 3 l 69 3 l 69 969 l 468 692 l 876 969 l 876 3 l 728 3 l 728 640 l 728 699 l 543 571 l 543 0 l 403 0 l 403 568 l 208 703 l 208 653 q 210 651 208 653 z "},"n":{"ha":740,"x_min":69,"x_max":671,"o":"m 210 704 l 210 3 l 69 3 l 69 972 l 531 651 l 531 972 l 671 972 l 671 3 l 531 3 l 531 467 l 531 479 l 210 704 z "},"ñ":{"ha":740,"x_min":69,"x_max":671,"o":"m 210 704 l 210 3 l 69 3 l 69 972 l 531 651 l 531 972 l 671 972 l 671 3 l 531 3 l 531 467 l 531 479 l 210 704 z "},"o":{"ha":788,"x_min":0,"x_max":788,"o":"m 393 0 l 221 218 l 0 499 l 393 972 l 786 499 l 565 218 l 393 0 m 179 499 l 201 471 l 375 249 l 392 226 l 606 497 l 590 515 l 535 582 l 433 706 l 393 754 l 179 499 z "},"ò":{"ha":788,"x_min":0,"x_max":788,"o":"m 393 0 l 221 218 l 0 499 l 393 972 l 786 499 l 565 218 l 393 0 m 179 499 l 201 471 l 375 249 l 392 226 l 606 497 l 590 515 l 535 582 l 433 706 l 393 754 l 179 499 z "},"ó":{"ha":788,"x_min":0,"x_max":788,"o":"m 393 0 l 221 218 l 0 499 l 393 972 l 786 499 l 565 218 l 393 0 m 179 499 l 201 471 l 375 249 l 392 226 l 606 497 l 590 515 l 535 582 l 433 706 l 393 754 l 179 499 z "},"ô":{"ha":788,"x_min":0,"x_max":788,"o":"m 393 0 l 221 218 l 0 499 l 393 972 l 786 499 l 565 218 l 393 0 m 179 499 l 201 471 l 375 249 l 392 226 l 606 497 l 590 515 l 535 582 l 433 706 l 393 754 l 179 499 z "},"õ":{"ha":788,"x_min":0,"x_max":788,"o":"m 393 0 l 221 218 l 0 499 l 393 972 l 786 499 l 565 218 l 393 0 m 179 499 l 201 471 l 375 249 l 392 226 l 606 497 l 590 515 l 535 582 l 433 706 l 393 754 l 179 499 z "},"ö":{"ha":788,"x_min":0,"x_max":788,"o":"m 393 0 l 221 218 l 0 499 l 393 972 l 786 499 l 565 218 l 393 0 m 179 499 l 201 471 l 375 249 l 392 226 l 606 497 l 590 515 l 535 582 l 433 706 l 393 754 l 179 499 z "},"ø":{"ha":788,"x_min":0,"x_max":788,"o":"m 393 0 l 221 218 l 0 499 l 393 972 l 786 499 l 565 218 l 393 0 m 179 499 l 201 471 l 375 249 l 392 226 l 606 497 l 590 515 l 535 582 l 433 706 l 393 754 l 179 499 z "},"p":{"ha":647,"x_min":69,"x_max":653,"o":"m 210 338 l 210 6 l 69 6 l 69 972 l 85 963 l 653 572 l 208 371 l 210 338 m 210 707 l 210 524 l 369 597 l 210 707 z "},"q":{"ha":799,"x_min":0,"x_max":788,"o":"m 393 0 l 221 218 l 0 499 l 393 972 l 786 499 l 617 283 l 743 126 l 658 4 l 528 171 l 393 0 m 179 499 l 201 471 l 375 249 l 392 226 l 438 285 l 350 397 l 439 506 l 526 397 l 606 497 l 590 515 l 535 582 l 433 706 l 393 754 l 179 499 z "},"r":{"ha":664,"x_min":69,"x_max":657,"o":"m 210 340 l 210 6 l 69 6 l 69 972 l 656 574 l 375 446 l 381 440 l 385 433 l 636 83 l 518 7 l 246 388 l 208 369 l 210 340 m 210 707 l 210 524 l 369 597 l 210 707 z "},"s":{"ha":629,"x_min":4,"x_max":628,"o":"m 126 0 l 4 82 l 342 372 l 50 579 l 503 972 l 628 890 l 276 590 l 567 383 l 126 0 z "},"t":{"ha":590,"x_min":-3,"x_max":593,"o":"m 225 0 l 225 833 l -3 833 l -3 972 l 593 972 l 593 833 l 365 833 l 365 0 l 225 0 z "},"u":{"ha":719,"x_min":69,"x_max":650,"o":"m 510 6 l 510 154 l 69 0 l 69 972 l 210 972 l 210 197 l 510 303 l 510 972 l 650 972 l 650 6 l 510 6 z "},"ù":{"ha":719,"x_min":69,"x_max":650,"o":"m 510 6 l 510 154 l 69 0 l 69 972 l 210 972 l 210 197 l 510 303 l 510 972 l 650 972 l 650 6 l 510 6 z "},"ú":{"ha":719,"x_min":69,"x_max":650,"o":"m 510 6 l 510 154 l 69 0 l 69 972 l 210 972 l 210 197 l 510 303 l 510 972 l 650 972 l 650 6 l 510 6 z "},"û":{"ha":719,"x_min":69,"x_max":650,"o":"m 510 6 l 510 154 l 69 0 l 69 972 l 210 972 l 210 197 l 510 303 l 510 972 l 650 972 l 650 6 l 510 6 z "},"ü":{"ha":719,"x_min":69,"x_max":650,"o":"m 510 6 l 510 154 l 69 0 l 69 972 l 210 972 l 210 197 l 510 303 l 510 972 l 650 972 l 650 6 l 510 6 z "},"v":{"ha":729,"x_min":0,"x_max":732,"o":"m 731 939 l 356 0 l 0 921 l 131 972 l 363 372 l 592 972 l 731 939 z "},"w":{"ha":1094,"x_min":0,"x_max":1097,"o":"m 549 515 l 356 0 l 0 921 l 131 972 l 363 422 l 543 972 l 728 422 l 957 972 l 1096 939 l 721 0 l 549 515 z "},"x":{"ha":617,"x_min":18,"x_max":599,"o":"m 131 0 l 18 54 l 233 499 l 18 924 l 154 972 l 308 654 l 463 972 l 597 924 l 383 499 l 597 54 l 485 0 l 308 350 l 131 0 z "},"y":{"ha":572,"x_min":-6,"x_max":576,"o":"m 215 0 l 215 507 l -4 924 l 132 972 l 286 658 l 440 972 l 575 924 l 361 507 l 361 0 l 215 0 z "},"ý":{"ha":572,"x_min":-6,"x_max":576,"o":"m 215 0 l 215 507 l -4 924 l 132 972 l 286 658 l 440 972 l 575 924 l 361 507 l 361 0 l 215 0 z "},"ÿ":{"ha":572,"x_min":-6,"x_max":576,"o":"m 215 0 l 215 507 l -4 924 l 132 972 l 286 658 l 440 972 l 575 924 l 361 507 l 361 0 l 215 0 z "},"z":{"ha":589,"x_min":26,"x_max":564,"o":"m 564 149 l 564 8 l 26 8 l 26 149 l 404 833 l 26 833 l 26 972 l 564 972 l 564 833 l 186 149 l 564 149 z "},"{":{"ha":488,"x_min":38,"x_max":499,"o":"m 315 392 l 315 133 l 499 -49 l 399 -149 l 176 75 l 176 76 l 176 339 l 38 489 l 176 636 l 176 896 l 176 896 l 399 1119 l 499 1021 l 315 839 l 315 579 l 314 579 l 226 486 l 314 393 l 314 392 l 315 392 z "},"|":{"ha":279,"x_min":69,"x_max":210,"o":"m 210 -149 l 69 -149 l 69 1119 l 210 1119 l 210 -149 z "},"}":{"ha":488,"x_min":-12,"x_max":450,"o":"m 311 636 l 450 489 l 311 339 l 311 76 l 311 75 l 88 -149 l -11 -49 l 171 133 l 171 392 l 174 392 l 174 393 l 261 486 l 174 579 l 171 579 l 171 839 l -11 1021 l 88 1119 l 311 896 l 311 896 l 311 636 z "},"~":{"ha":822,"x_min":42,"x_max":782,"o":"m 660 740 l 781 671 l 589 333 l 290 513 l 163 292 l 42 361 l 239 706 l 538 528 l 660 740 z "}," ":{"ha":410,"x_min":0,"x_max":0,"o":""},"­":{"ha":0,"x_min":0,"x_max":0,"o":""},"‘":{"ha":263,"x_min":43,"x_max":222,"o":"m 222 843 l 221 842 l 222 842 l 92 711 l 44 758 l 135 842 l 44 925 l 92 972 l 222 843 z "},"’":{"ha":263,"x_min":44,"x_max":222,"o":"m 222 843 l 221 842 l 222 842 l 92 711 l 44 758 l 135 842 l 44 925 l 92 972 l 222 843 z "},"‚":{"ha":267,"x_min":46,"x_max":224,"o":"m 224 168 l 222 168 l 224 167 l 93 36 l 46 83 l 136 168 l 46 251 l 93 299 l 224 168 z "},"“":{"ha":399,"x_min":44,"x_max":358,"o":"m 221 842 l 222 842 l 92 711 l 44 758 l 135 842 l 44 925 l 92 972 l 222 843 l 221 842 m 358 843 l 357 842 l 358 842 l 228 711 l 181 758 l 271 842 l 181 925 l 228 972 l 358 843 z "},"”":{"ha":399,"x_min":43,"x_max":358,"o":"m 221 842 l 222 842 l 92 711 l 44 758 l 135 842 l 44 925 l 92 972 l 222 843 l 221 842 m 358 843 l 357 842 l 358 842 l 228 711 l 181 758 l 271 842 l 181 925 l 228 972 l 358 843 z "},"„":{"ha":403,"x_min":44,"x_max":360,"o":"m 222 168 l 224 167 l 93 36 l 46 83 l 136 168 l 46 251 l 93 299 l 224 168 l 222 168 m 360 168 l 358 168 l 360 167 l 229 36 l 182 83 l 272 168 l 182 251 l 229 299 l 360 168 z "}}}
